<svg viewBox="0 0 234 234" xmlns="http://www.w3.org/2000/svg" xml:space="preserve" style="fill-rule:evenodd;clip-rule:evenodd;stroke-linejoin:round;stroke-miterlimit:2">
  <desc>Traced by Dogo314</desc>
  <path style="fill:none" d="M0 0h1080v1080H0z" transform="scale(.21667)"/>
  <path d="M1266.424 2118.712 1277 2173h-48l10.576-54.288A70.3 70.3 0 0 0 1253 2120c4.591 0 9.079-.443 13.424-1.288m18.44-14.364A62.6 62.6 0 0 1 1268 2111.2a63 63 0 0 1-15 1.8 63 63 0 0 1-17.662-2.514 62.6 62.6 0 0 1-14.202-6.138L1230 2029h8v68.052c3.226-4.852 8.742-8.052 15-8.052s11.774 3.2 15 8.052V2029h8z" style="fill:#8ffbff" transform="translate(-1136.017 -1984.03)scale(1.00001)"/>
</svg>
