<?xml version="1.0" encoding="UTF-8" standalone="no"?>
<svg viewBox="0 0 256 256" xml:space="preserve" style="clip-rule:evenodd;fill-rule:evenodd;stroke-linejoin:round;stroke-miterlimit:2" version="1.1" id="svg17" width="256" height="256" xmlns="http://www.w3.org/2000/svg" xmlns:svg="http://www.w3.org/2000/svg">
	<defs id="defs17" />
	<desc id="desc1">Traced by Dogo314</desc>
	<path style="fill:none" d="M 0,0 H 256 V 256 H 0 Z" id="path1" />
	<path style="fill:#091901" d="M 0,0 H 256 V 256 H 0 Z" id="path3" />
	<path d="M 240,240 H 16 V 201.778 L 56,184 92,200 h 72 l 36,-16 40,17.778 z" style="fill:#679452" id="path4" />
	<path d="M 0,256.00005 V 0 H 256 V 256.00005 Z M 242,13.994669 H 14 V 242.00538 h 228 z" style="fill:#689452;stroke-width:4.13118" id="path16" />
		
	<path d="m 124.0592,57.77476 c 1.21453,-0.0976 2.35628,0.0438 3.39549,0.80418 l 0.23077,0.15153 c 0.56677,0.39011 0.81181,0.89084 1.07988,1.55918 0.25373,0.61177 0.52802,1.2822 0.76812,2.83317 0.13809,0.84339 0.41119,1.51694 0.78214,2.26311 0.55123,1.57927 0.27627,3.46467 0.16689,5.12079 4.32744,1.7239 7.45601,2.02045 10.7629,6.08405 3.22474,5.22235 3.1901,11.83502 3.89923,17.93164 0.55481,6.22887 2.53293,4.66277 2.75169,7.22017 -0.85104,2.79554 -0.97645,6.01336 -2.489,8.49118 -0.8971,0.28349 -1.76156,0.0101 -2.63838,-0.23982 -1.56849,-0.64054 -3.53927,-0.22273 -4.10016,0.43944 -0.21476,0.60668 -0.0885,0.84081 -0.029,1.29823 0.62414,4.90601 0.50872,9.87516 0.47563,14.81588 0.0126,3.35632 0.1143,6.7236 0.3952,10.06666 0.24003,1.90036 0.0583,3.8204 -0.16588,5.70945 -0.68039,5.73916 -0.34905,9.47705 -0.90067,15.0795 -0.48751,4.17037 1.99134,6.62997 3.34924,10.29095 0.46472,0.93958 0.4062,1.65808 -0.0968,2.50376 -9.29889,0.0354 -18.62089,0.35563 -27.92309,-4e-5 -0.32549,-0.4187 -0.42877,-0.82901 -0.44856,-1.38111 0.63182,-2.33214 1.74952,-4.48145 3.00196,-6.45876 0.18562,-0.43214 0.18804,-0.8249 0.18003,-1.2943 -1.32617,-17.32003 -2.15875,-21.20686 -4.86411,-31.42027 -0.059,-7.46682 -0.39003,-15.23887 0.6378,-22.60784 0.37291,-2.05913 -0.0589,-5.86175 -0.0771,-6.01882 -1.14226,-0.38766 -1.83675,-0.77592 -3.44833,-2.18153 -1.93313,-2.67371 -2.82508,-5.82301 -2.9805,-9.22342 0.005,-2.69901 0.0135,-4.08515 0.0192,-6.89812 0.0466,-5.91477 4.31643,-10.1689 7.64328,-9.57026 0.37802,0.18812 0.58363,0.25112 1.00926,0.25112 0.83043,-0.68747 1.63801,-1.66012 2.69139,-1.88333 -0.82059,-1.72155 -0.6926,-3.61848 0.10381,-5.37977 0.39484,-0.8149 0.58202,-1.73583 0.81106,-2.62168 1.06987,-4.08784 2.8185,-5.69682 6.00657,-5.73492 z" style="fill:#ffffee;fill-opacity:1;stroke-width:0.118658" id="path1-8" />
	<path d="m 151.26732,173.75656 11.93853,22.86753 h -71.6312 l 11.93853,-22.86753 h 47.75414" style="clip-rule:evenodd;fill:#ffffee;fill-opacity:1;fill-rule:evenodd;stroke-width:0.849842;stroke-linejoin:round;stroke-miterlimit:2" id="path7" />
</svg>