<?xml version="1.0" encoding="UTF-8" standalone="no"?>
<svg
   viewBox="0 0 256 256"
   xml:space="preserve"
   style="fill-rule:evenodd;clip-rule:evenodd;stroke-linejoin:round;stroke-miterlimit:2"
   version="1.1"
   id="svg21"
   sodipodi:docname="Spear_Stratagem_Icon.svg"
   inkscape:export-filename="Sprar_Stratagem_Icon.svg"
   inkscape:export-xdpi="96"
   inkscape:export-ydpi="96"
   inkscape:version="1.2.2 (b0a8486541, 2022-12-01)"
   xmlns:inkscape="http://www.inkscape.org/namespaces/inkscape"
   xmlns:sodipodi="http://sodipodi.sourceforge.net/DTD/sodipodi-0.dtd"
   xmlns="http://www.w3.org/2000/svg"
   xmlns:svg="http://www.w3.org/2000/svg"><defs
   id="defs25" /><sodipodi:namedview
   id="namedview23"
   pagecolor="#ffffff"
   bordercolor="#000000"
   borderopacity="0.25"
   inkscape:showpageshadow="2"
   inkscape:pageopacity="0.0"
   inkscape:pagecheckerboard="0"
   inkscape:deskcolor="#d1d1d1"
   showgrid="false"
   inkscape:zoom="3.359375"
   inkscape:cx="128"
   inkscape:cy="104.18605"
   inkscape:window-width="1920"
   inkscape:window-height="1011"
   inkscape:window-x="0"
   inkscape:window-y="0"
   inkscape:window-maximized="1"
   inkscape:current-layer="g19" />
  <desc
   id="desc2">Traced by Dogo314</desc>
  <g
   transform="translate(-276 -306)"
   id="g19">
    <path
   style="fill:none"
   d="M276 306h256v256H276z"
   id="path4" />
    <clipPath
   id="a">
      <path
   d="M276 306h256v256H276z"
   id="path6" />
    </clipPath>
    <g
   clip-path="url(#a)"
   id="g17">
      <path
   style="fill:#011419;"
   transform="translate(0 306)"
   d="M276 0h256v256H276z"
   id="path9" />
      <path
   d="m3442 2517-12-3v-4l-7-6-9-18h-25v-3h-3v-2h-34v-21h34v-4h12v-3l2-2h72l2-5h44l2 5v5h6l2 2v24l-2 2h-3v1h1v3h-17.034a7 7 0 0 0-6.607 4.688L3495 2508l-8-3 1-3-8-2-1 6h-7l-15-5-15 13zm-4-27-2 13h3l11-10-7-3zm31.822 6.657a3 3 0 0 0-1.874-.657h-.489a3 3 0 0 0-2.941 2.412l-.041.201a3 3 0 0 0 1.76 3.346l2.596 1.112a3 3 0 0 0 3.582-.957l.422-.563a2 2 0 0 0-.351-2.762z"
   style="fill:#53bcda"
   transform="translate(-3036 -1992)"
   id="path11" />
      <path
   d="m 412.50233,446.48373 h -77.9907 v -19.49768 h 77.9907 c 5.38074,0 9.74883,4.36809 9.74883,9.74884 0,5.38075 -4.36809,9.74884 -9.74883,9.74884 m 0,-14.62326 c -2.69007,0 -4.87442,2.18435 -4.87442,4.87442 0,2.69007 2.18435,4.87442 4.87442,4.87442 2.69007,0 4.87442,-2.18435 4.87442,-4.87442 0,-2.69007 -2.18435,-4.87442 -4.87442,-4.87442 m -77.9907,-24.37209 14.62326,14.62325 h -14.62326 z m 0,58.49302 v -14.62326 h 14.62326 z"
   style="fill:#ffffee;stroke-width:0.609303"
   id="path13" /><path
   d="m 467.59069,404.15814 h -77.9907 v -19.49768 h 77.9907 c 5.38074,0 9.74883,4.36809 9.74883,9.74884 0,5.38075 -4.36809,9.74884 -9.74883,9.74884 m 0,-14.62326 c -2.69007,0 -4.87442,2.18435 -4.87442,4.87442 0,2.69007 2.18435,4.87442 4.87442,4.87442 2.69007,0 4.87442,-2.18435 4.87442,-4.87442 0,-2.69007 -2.18435,-4.87442 -4.87442,-4.87442 m -77.9907,-24.37209 14.62326,14.62325 h -14.62326 z m 0,58.49302 v -14.62326 h 14.62326 z"
   style="clip-rule:evenodd;fill:#ffffee;fill-rule:evenodd;stroke-width:0.609303;stroke-linejoin:round;stroke-miterlimit:2"
   id="path13-7" /><path
   d="m 413.11629,362.7814 h -77.9907 v -19.49768 h 77.9907 c 5.38074,0 9.74883,4.36809 9.74883,9.74884 0,5.38075 -4.36809,9.74884 -9.74883,9.74884 m 0,-14.62326 c -2.69007,0 -4.87442,2.18435 -4.87442,4.87442 0,2.69007 2.18435,4.87442 4.87442,4.87442 2.69007,0 4.87442,-2.18435 4.87442,-4.87442 0,-2.69007 -2.18435,-4.87442 -4.87442,-4.87442 m -77.9907,-24.37209 14.62326,14.62325 h -14.62326 z m 0,58.49302 v -14.62326 h 14.62326 z"
   style="clip-rule:evenodd;fill:#ffffee;fill-rule:evenodd;stroke-width:0.609303;stroke-linejoin:round;stroke-miterlimit:2"
   id="path13-7-5" />
      <path
   d="M276 15V0h256v15zM518 .82H290v13.36h228z"
   style="fill:#5abeda"
   transform="matrix(1 0 0 17.06667 0 306)"
   id="path15" />
    </g>
  </g>
</svg>
